<svg width="130" height="23" viewBox="0 0 130 23" fill="none" xmlns="http://www.w3.org/2000/svg">
<path d="M7.128 18.312C6.416 18.312 5.684 18.252 4.932 18.132C4.188 18.02 3.488 17.872 2.832 17.688C2.184 17.504 1.656 17.312 1.248 17.112L1.536 13.644C2.088 13.956 2.664 14.224 3.264 14.448C3.872 14.664 4.476 14.832 5.076 14.952C5.684 15.072 6.264 15.132 6.816 15.132C7.368 15.132 7.848 15.064 8.256 14.928C8.664 14.792 8.98 14.588 9.204 14.316C9.428 14.036 9.54 13.676 9.54 13.236C9.54 12.788 9.392 12.42 9.096 12.132C8.808 11.836 8.392 11.58 7.848 11.364C7.304 11.14 6.656 10.92 5.904 10.704C4.864 10.4 3.976 10.048 3.24 9.648C2.504 9.24 1.94 8.72 1.548 8.088C1.164 7.448 0.972 6.628 0.972 5.628C0.972 4.628 1.192 3.748 1.632 2.988C2.072 2.22 2.736 1.62 3.624 1.188C4.512 0.756 5.636 0.539999 6.996 0.539999C7.532 0.539999 8.068 0.575999 8.604 0.647999C9.14 0.711999 9.66 0.799999 10.164 0.912C10.676 1.024 11.148 1.152 11.58 1.296C12.012 1.44 12.388 1.592 12.708 1.752L12.408 5.232C11.896 4.912 11.364 4.644 10.812 4.428C10.26 4.212 9.72 4.048 9.192 3.936C8.664 3.824 8.184 3.768 7.752 3.768C7.264 3.768 6.82 3.832 6.42 3.96C6.028 4.088 5.716 4.284 5.484 4.548C5.252 4.812 5.136 5.144 5.136 5.544C5.136 5.936 5.244 6.268 5.46 6.54C5.684 6.804 6.024 7.04 6.48 7.248C6.944 7.448 7.54 7.656 8.268 7.872C9.636 8.28 10.716 8.708 11.508 9.156C12.3 9.596 12.86 10.128 13.188 10.752C13.524 11.376 13.692 12.16 13.692 13.104C13.692 14.152 13.464 15.068 13.008 15.852C12.552 16.628 11.84 17.232 10.872 17.664C9.904 18.096 8.656 18.312 7.128 18.312ZM21.8901 18.312C20.3461 18.312 19.0821 18.04 18.0981 17.496C17.1221 16.952 16.4021 16.204 15.9381 15.252C15.4821 14.3 15.2541 13.208 15.2541 11.976C15.2541 10.744 15.4701 9.656 15.9021 8.712C16.3341 7.768 16.9781 7.032 17.8341 6.504C18.6981 5.968 19.7701 5.7 21.0501 5.7C22.1381 5.7 23.0701 5.896 23.8461 6.288C24.6221 6.672 25.2181 7.256 25.6341 8.04C26.0501 8.824 26.2581 9.812 26.2581 11.004C26.2581 11.324 26.2501 11.608 26.2341 11.856C26.2181 12.104 26.1901 12.352 26.1501 12.6L23.0781 11.436C23.0941 11.332 23.1061 11.224 23.1141 11.112C23.1221 11 23.1261 10.896 23.1261 10.8C23.1261 9.992 22.9341 9.36 22.5501 8.904C22.1741 8.44 21.6861 8.208 21.0861 8.208C20.6301 8.208 20.2261 8.344 19.8741 8.616C19.5221 8.88 19.2461 9.252 19.0461 9.732C18.8461 10.212 18.7461 10.784 18.7461 11.448V12.036C18.7461 12.732 18.8701 13.328 19.1181 13.824C19.3741 14.32 19.7661 14.7 20.2941 14.964C20.8221 15.228 21.4981 15.36 22.3221 15.36C22.6421 15.36 23.0101 15.332 23.4261 15.276C23.8501 15.212 24.2781 15.12 24.7101 15C25.1501 14.872 25.5581 14.712 25.9341 14.52L26.0541 17.544C25.7421 17.688 25.3781 17.82 24.9621 17.94C24.5541 18.052 24.0901 18.14 23.5701 18.204C23.0501 18.276 22.4901 18.312 21.8901 18.312ZM16.6341 12.6V10.68L24.0621 10.524L26.1501 11.112V12.6H16.6341ZM28.5229 18C28.5229 17.144 28.5229 16.316 28.5229 15.516C28.5229 14.708 28.5229 13.808 28.5229 12.816V6.156C28.5229 5.18 28.5229 4.216 28.5229 3.264C28.5229 2.304 28.5229 1.352 28.5229 0.407999L32.1109 0.0959988C32.1109 1.04 32.1109 2.012 32.1109 3.012C32.1109 4.004 32.1109 5.052 32.1109 6.156V12.816C32.1109 13.808 32.1109 14.708 32.1109 15.516C32.1109 16.316 32.1109 17.144 32.1109 18H28.5229ZM36.0099 18C36.0099 17.144 36.0099 16.316 36.0099 15.516C36.0099 14.708 36.0099 13.808 36.0099 12.816V11.616C36.0099 11.144 36.0099 10.628 36.0099 10.068C36.0099 9.5 36.0099 8.916 36.0099 8.316C36.0099 7.716 36.0099 7.124 36.0099 6.54C36.0099 5.948 36.0099 5.384 36.0099 4.848C36.0099 3.904 36.1379 3.124 36.3939 2.508C36.6579 1.884 37.0139 1.396 37.4619 1.044C37.9179 0.683999 38.4339 0.431999 39.0099 0.287999C39.5859 0.143999 40.1899 0.0719991 40.8219 0.0719991C41.1899 0.0719991 41.5379 0.0919991 41.8659 0.131999C42.2019 0.164 42.5019 0.208 42.7659 0.263999C43.0379 0.319999 43.2579 0.383999 43.4259 0.456L43.1499 3.384C42.8699 3.272 42.5779 3.184 42.2739 3.12C41.9779 3.056 41.6859 3.024 41.3979 3.024C40.7499 3.024 40.2619 3.18 39.9339 3.492C39.6059 3.796 39.4419 4.276 39.4419 4.932C39.4419 5.092 39.4419 5.284 39.4419 5.508C39.4419 5.732 39.4419 5.904 39.4419 6.024L39.5859 6.624V12.816C39.5859 13.808 39.5859 14.708 39.5859 15.516C39.5859 16.316 39.5859 17.144 39.5859 18H36.0099ZM34.0299 8.724V6.024H42.8859V8.724C42.1339 8.724 41.4099 8.724 40.7139 8.724C40.0259 8.724 39.3299 8.724 38.6259 8.724H37.0299H34.0299ZM50.5343 18.312C49.8223 18.312 49.0903 18.252 48.3383 18.132C47.5943 18.02 46.8943 17.872 46.2383 17.688C45.5903 17.504 45.0623 17.312 44.6543 17.112L44.9423 13.644C45.4943 13.956 46.0703 14.224 46.6703 14.448C47.2783 14.664 47.8823 14.832 48.4823 14.952C49.0903 15.072 49.6703 15.132 50.2223 15.132C50.7743 15.132 51.2543 15.064 51.6623 14.928C52.0703 14.792 52.3863 14.588 52.6103 14.316C52.8343 14.036 52.9463 13.676 52.9463 13.236C52.9463 12.788 52.7983 12.42 52.5023 12.132C52.2143 11.836 51.7983 11.58 51.2543 11.364C50.7103 11.14 50.0623 10.92 49.3103 10.704C48.2703 10.4 47.3823 10.048 46.6463 9.648C45.9103 9.24 45.3463 8.72 44.9543 8.088C44.5703 7.448 44.3783 6.628 44.3783 5.628C44.3783 4.628 44.5983 3.748 45.0383 2.988C45.4783 2.22 46.1423 1.62 47.0303 1.188C47.9183 0.756 49.0423 0.539999 50.4023 0.539999C50.9383 0.539999 51.4743 0.575999 52.0103 0.647999C52.5463 0.711999 53.0663 0.799999 53.5703 0.912C54.0823 1.024 54.5543 1.152 54.9863 1.296C55.4183 1.44 55.7943 1.592 56.1143 1.752L55.8143 5.232C55.3023 4.912 54.7703 4.644 54.2183 4.428C53.6663 4.212 53.1263 4.048 52.5983 3.936C52.0703 3.824 51.5903 3.768 51.1583 3.768C50.6703 3.768 50.2263 3.832 49.8263 3.96C49.4343 4.088 49.1223 4.284 48.8903 4.548C48.6583 4.812 48.5423 5.144 48.5423 5.544C48.5423 5.936 48.6503 6.268 48.8663 6.54C49.0903 6.804 49.4303 7.04 49.8863 7.248C50.3503 7.448 50.9463 7.656 51.6743 7.872C53.0423 8.28 54.1223 8.708 54.9143 9.156C55.7063 9.596 56.2663 10.128 56.5943 10.752C56.9303 11.376 57.0983 12.16 57.0983 13.104C57.0983 14.152 56.8703 15.068 56.4143 15.852C55.9583 16.628 55.2463 17.232 54.2783 17.664C53.3103 18.096 52.0623 18.312 50.5343 18.312ZM64.1859 18.324C63.2979 18.324 62.5379 18.192 61.9059 17.928C61.2819 17.656 60.8019 17.224 60.4659 16.632C60.1379 16.04 59.9739 15.26 59.9739 14.292C59.9739 13.772 59.9739 13.24 59.9739 12.696C59.9739 12.144 59.9739 11.568 59.9739 10.968C59.9739 10.368 59.9739 9.736 59.9739 9.072C59.9739 8.408 59.9739 7.692 59.9739 6.924C59.9739 6.02 59.9739 5.192 59.9739 4.44C59.9739 3.688 59.9739 2.92 59.9739 2.136L63.5019 1.5C63.5019 2.124 63.5019 2.716 63.5019 3.276C63.5019 3.828 63.5019 4.4 63.5019 4.992C63.5019 5.576 63.5019 6.22 63.5019 6.924V13.164C63.5019 13.892 63.6339 14.448 63.8979 14.832C64.1699 15.208 64.6099 15.396 65.2179 15.396C65.4739 15.396 65.7539 15.352 66.0579 15.264C66.3619 15.168 66.6539 15.02 66.9339 14.82L67.1379 17.724C66.9299 17.852 66.6659 17.96 66.3459 18.048C66.0259 18.136 65.6779 18.204 65.3019 18.252C64.9259 18.3 64.5539 18.324 64.1859 18.324ZM58.0299 8.724V6.024H67.0779V8.724C66.3259 8.724 65.5699 8.724 64.8099 8.724C64.0579 8.724 63.3299 8.724 62.6259 8.724H61.0299H58.0299ZM74.8646 18.324C73.7766 18.324 72.8286 18.152 72.0206 17.808C71.2206 17.464 70.5566 16.996 70.0286 16.404C69.5086 15.812 69.1166 15.136 68.8526 14.376C68.5966 13.608 68.4686 12.808 68.4686 11.976C68.4686 10.784 68.7086 9.716 69.1886 8.772C69.6766 7.82 70.3886 7.072 71.3246 6.528C72.2686 5.976 73.4246 5.7 74.7926 5.7C75.8486 5.7 76.7726 5.86 77.5646 6.18C78.3646 6.492 79.0286 6.936 79.5566 7.512C80.0926 8.08 80.4926 8.748 80.7566 9.516C81.0206 10.276 81.1526 11.096 81.1526 11.976C81.1526 13.184 80.9086 14.268 80.4206 15.228C79.9326 16.18 79.2206 16.936 78.2846 17.496C77.3486 18.048 76.2086 18.324 74.8646 18.324ZM74.8526 15.396C75.4526 15.396 75.9446 15.236 76.3286 14.916C76.7206 14.588 77.0126 14.164 77.2046 13.644C77.4046 13.124 77.5046 12.568 77.5046 11.976C77.5046 11.272 77.3926 10.672 77.1686 10.176C76.9446 9.672 76.6326 9.288 76.2326 9.024C75.8326 8.76 75.3686 8.628 74.8406 8.628C74.2486 8.628 73.7486 8.776 73.3406 9.072C72.9406 9.368 72.6366 9.768 72.4286 10.272C72.2286 10.776 72.1286 11.344 72.1286 11.976C72.1286 12.568 72.2286 13.124 72.4286 13.644C72.6366 14.164 72.9406 14.588 73.3406 14.916C73.7486 15.236 74.2526 15.396 74.8526 15.396ZM83.4604 18C83.4604 17.144 83.4604 16.316 83.4604 15.516C83.4604 14.708 83.4604 13.808 83.4604 12.816V11.616C83.4604 10.696 83.4604 9.772 83.4604 8.844C83.4604 7.916 83.4604 6.976 83.4604 6.024L86.4724 5.844L86.6284 8.052H86.9284C87.2404 7.404 87.5844 6.912 87.9604 6.576C88.3364 6.232 88.7204 6 89.1124 5.88C89.5044 5.76 89.8804 5.7 90.2404 5.7C90.4244 5.7 90.6284 5.716 90.8524 5.748C91.0844 5.78 91.3004 5.836 91.5004 5.916L91.1884 9.396C90.8764 9.372 90.5964 9.352 90.3484 9.336C90.1004 9.32 89.8364 9.312 89.5564 9.312C89.3324 9.312 89.1004 9.336 88.8604 9.384C88.6284 9.432 88.4004 9.528 88.1764 9.672C87.9524 9.816 87.7444 10.016 87.5524 10.272C87.3604 10.528 87.1924 10.86 87.0484 11.268V13.008C87.0484 13.904 87.0484 14.748 87.0484 15.54C87.0484 16.324 87.0484 17.144 87.0484 18H83.4604ZM95.9366 18.288C95.2486 18.288 94.6486 18.144 94.1366 17.856C93.6246 17.568 93.2246 17.164 92.9366 16.644C92.6486 16.116 92.5046 15.492 92.5046 14.772C92.5046 14.092 92.6246 13.524 92.8646 13.068C93.1046 12.604 93.4126 12.228 93.7886 11.94C94.1726 11.652 94.5886 11.432 95.0366 11.28C95.4926 11.128 95.9366 11.016 96.3686 10.944L99.7046 10.428C99.7206 9.964 99.6326 9.604 99.4406 9.348C99.2486 9.084 98.9686 8.9 98.6006 8.796C98.2406 8.692 97.8086 8.64 97.3046 8.64C97.0326 8.64 96.7366 8.664 96.4166 8.712C96.0966 8.752 95.7606 8.816 95.4086 8.904C95.0646 8.992 94.7046 9.1 94.3286 9.228C93.9606 9.356 93.5886 9.512 93.2126 9.696L93.0446 6.636C93.3406 6.532 93.6806 6.424 94.0646 6.312C94.4486 6.2 94.8646 6.1 95.3126 6.012C95.7606 5.916 96.2326 5.84 96.7286 5.784C97.2326 5.728 97.7486 5.7 98.2766 5.7C99.2766 5.7 100.129 5.848 100.833 6.144C101.545 6.432 102.089 6.888 102.465 7.512C102.841 8.136 103.029 8.952 103.029 9.96C103.029 10.352 103.029 10.832 103.029 11.4C103.029 11.968 103.029 12.476 103.029 12.924V14.064C103.029 14.672 103.029 15.3 103.029 15.948C103.029 16.588 103.029 17.272 103.029 18H99.9686L99.7406 16.404H99.4646C99.2486 16.708 98.9766 17.008 98.6486 17.304C98.3206 17.592 97.9286 17.828 97.4726 18.012C97.0246 18.196 96.5126 18.288 95.9366 18.288ZM97.3646 15.516C97.6446 15.516 97.9246 15.452 98.2046 15.324C98.4846 15.188 98.7446 15 98.9846 14.76C99.2246 14.512 99.4326 14.22 99.6086 13.884V12.048C99.5126 12.12 99.3886 12.188 99.2366 12.252C99.0926 12.308 98.8766 12.372 98.5886 12.444C98.3086 12.508 97.9166 12.592 97.4126 12.696C97.1246 12.752 96.8766 12.848 96.6686 12.984C96.4606 13.12 96.2966 13.296 96.1766 13.512C96.0646 13.72 96.0086 13.968 96.0086 14.256C96.0086 14.712 96.1446 15.036 96.4166 15.228C96.6966 15.42 97.0126 15.516 97.3646 15.516ZM110.033 22.908C109.129 22.908 108.369 22.832 107.753 22.68C107.145 22.528 106.661 22.32 106.301 22.056C105.941 21.8 105.681 21.504 105.521 21.168C105.369 20.84 105.293 20.5 105.293 20.148C105.293 19.62 105.421 19.184 105.677 18.84C105.933 18.504 106.233 18.24 106.577 18.048C106.929 17.856 107.237 17.72 107.501 17.64V17.4C107.333 17.36 107.145 17.268 106.937 17.124C106.737 16.98 106.561 16.784 106.409 16.536C106.257 16.288 106.181 15.984 106.181 15.624C106.181 15.36 106.229 15.104 106.325 14.856C106.429 14.608 106.589 14.38 106.805 14.172C107.021 13.964 107.305 13.788 107.657 13.644V13.404C107.401 13.3 107.125 13.152 106.829 12.96C106.533 12.768 106.253 12.524 105.989 12.228C105.725 11.924 105.509 11.564 105.341 11.148C105.173 10.732 105.089 10.244 105.089 9.684C105.089 8.94 105.273 8.268 105.641 7.668C106.017 7.06 106.581 6.58 107.333 6.228C108.093 5.876 109.049 5.7 110.201 5.7C110.649 5.7 111.041 5.724 111.377 5.772C111.713 5.812 112.061 5.856 112.421 5.904C112.781 5.952 113.233 5.976 113.777 5.976H117.065V8.34C116.321 8.34 115.609 8.34 114.929 8.34C114.249 8.34 113.557 8.34 112.853 8.34L113.789 6.852C114.301 7.188 114.677 7.612 114.917 8.124C115.165 8.628 115.289 9.204 115.289 9.852C115.289 10.628 115.117 11.28 114.773 11.808C114.429 12.336 113.961 12.76 113.369 13.08C112.785 13.4 112.133 13.636 111.413 13.788C110.749 13.932 110.257 14.064 109.937 14.184C109.617 14.304 109.457 14.484 109.457 14.724C109.457 14.876 109.525 14.996 109.661 15.084C109.797 15.172 110.009 15.236 110.297 15.276C110.585 15.308 110.957 15.324 111.413 15.324H111.893C112.909 15.324 113.781 15.412 114.509 15.588C115.237 15.764 115.793 16.076 116.177 16.524C116.569 16.972 116.765 17.592 116.765 18.384C116.765 19.208 116.565 19.908 116.165 20.484C115.765 21.06 115.233 21.524 114.569 21.876C113.905 22.236 113.177 22.496 112.385 22.656C111.601 22.824 110.817 22.908 110.033 22.908ZM110.477 20.436C111.141 20.436 111.689 20.352 112.121 20.184C112.561 20.016 112.885 19.82 113.093 19.596C113.309 19.38 113.417 19.192 113.417 19.032C113.417 18.832 113.349 18.66 113.213 18.516C113.085 18.372 112.837 18.26 112.469 18.18C112.101 18.108 111.569 18.072 110.873 18.072H110.501C110.173 18.088 109.841 18.148 109.505 18.252C109.177 18.364 108.901 18.512 108.677 18.696C108.461 18.88 108.353 19.092 108.353 19.332C108.353 19.476 108.393 19.612 108.473 19.74C108.561 19.876 108.689 19.996 108.857 20.1C109.025 20.204 109.245 20.284 109.517 20.34C109.789 20.404 110.109 20.436 110.477 20.436ZM110.141 11.796C110.349 11.78 110.569 11.736 110.801 11.664C111.041 11.592 111.265 11.496 111.473 11.376C111.681 11.248 111.849 11.088 111.977 10.896C112.105 10.696 112.169 10.46 112.169 10.188C112.169 9.82 112.073 9.516 111.881 9.276C111.689 9.036 111.445 8.856 111.149 8.736C110.853 8.616 110.541 8.556 110.213 8.556C109.893 8.556 109.593 8.616 109.313 8.736C109.033 8.856 108.805 9.032 108.629 9.264C108.453 9.488 108.365 9.76 108.365 10.08C108.365 10.392 108.449 10.668 108.617 10.908C108.785 11.14 109.001 11.332 109.265 11.484C109.537 11.636 109.829 11.74 110.141 11.796ZM124.734 18.312C123.19 18.312 121.926 18.04 120.942 17.496C119.966 16.952 119.246 16.204 118.782 15.252C118.326 14.3 118.098 13.208 118.098 11.976C118.098 10.744 118.314 9.656 118.746 8.712C119.178 7.768 119.822 7.032 120.678 6.504C121.542 5.968 122.614 5.7 123.894 5.7C124.982 5.7 125.914 5.896 126.69 6.288C127.466 6.672 128.062 7.256 128.478 8.04C128.894 8.824 129.102 9.812 129.102 11.004C129.102 11.324 129.094 11.608 129.078 11.856C129.062 12.104 129.034 12.352 128.994 12.6L125.922 11.436C125.938 11.332 125.95 11.224 125.958 11.112C125.966 11 125.97 10.896 125.97 10.8C125.97 9.992 125.778 9.36 125.394 8.904C125.018 8.44 124.53 8.208 123.93 8.208C123.474 8.208 123.07 8.344 122.718 8.616C122.366 8.88 122.09 9.252 121.89 9.732C121.69 10.212 121.59 10.784 121.59 11.448V12.036C121.59 12.732 121.714 13.328 121.962 13.824C122.218 14.32 122.61 14.7 123.138 14.964C123.666 15.228 124.342 15.36 125.166 15.36C125.486 15.36 125.854 15.332 126.27 15.276C126.694 15.212 127.122 15.12 127.554 15C127.994 14.872 128.402 14.712 128.778 14.52L128.898 17.544C128.586 17.688 128.222 17.82 127.806 17.94C127.398 18.052 126.934 18.14 126.414 18.204C125.894 18.276 125.334 18.312 124.734 18.312ZM119.478 12.6V10.68L126.906 10.524L128.994 11.112V12.6H119.478Z" fill="#579586"/>
</svg>
