<svg width="25" height="25" viewBox="0 0 25 25" fill="none" xmlns="http://www.w3.org/2000/svg">
<path fill-rule="evenodd" clip-rule="evenodd" d="M11.9954 2.23543L11.9943 2.23591L2.90597 6.48456L2.90346 6.48573C2.71413 6.57369 2.55481 6.70929 2.44339 6.87727C2.33201 7.0452 2.27293 7.23884 2.27278 7.43643V17.558C2.2713 17.7561 2.32901 17.9505 2.43945 18.1195C2.5497 18.2881 2.7081 18.4247 2.89682 18.5138L11.9855 22.7626C12.1434 22.8365 12.3178 22.8751 12.4943 22.8751C12.6709 22.8751 12.845 22.8366 13.0029 22.7628L22.0941 18.5128L22.0966 18.5116C22.2859 18.4237 22.4453 18.2881 22.5567 18.1201C22.6681 17.9521 22.7272 17.7584 22.7273 17.5607V7.43663C22.7272 7.23897 22.6681 7.04526 22.5567 6.87727C22.4452 6.70929 22.2859 6.57369 22.0966 6.48573L22.0941 6.48456L13.0057 2.23591L13.0047 2.23543C12.8478 2.16274 12.6751 2.12491 12.5 2.12491C12.3249 2.12491 12.1522 2.16274 11.9954 2.23543ZM13.5114 1.28445L14.0171 0.332983C13.5457 0.113972 13.0264 0 12.5 0C11.9736 0 11.4544 0.113972 10.983 0.332983L10.9805 0.334155L1.8921 4.58281L1.89069 4.58346C1.32333 4.84736 0.845865 5.25389 0.511894 5.75743C0.177648 6.26138 0.000391778 6.84252 5.52161e-05 7.4355L5.50807e-05 17.5473C-0.0035474 18.1399 0.169628 18.7218 0.500175 19.2275C0.831477 19.7344 1.30769 20.1446 1.87508 20.4119L1.87822 20.4134L10.9688 24.663C11.4424 24.8846 11.9647 25 12.4943 25C13.0238 25 13.5461 24.8847 14.0196 24.6632L23.108 20.4145L23.1091 20.414C23.6766 20.1501 24.1541 19.7435 24.4882 19.2399C24.8224 18.736 24.9997 18.1548 25 17.5618V7.43607C24.9997 6.84308 24.8224 6.26138 24.4882 5.75743C24.1542 5.2539 23.6768 4.84738 23.1094 4.58349L23.108 4.58281L14.0196 0.334155L13.5114 1.28445Z" fill="#F28A4F"/>
<path fill-rule="evenodd" clip-rule="evenodd" d="M0.483659 5.81347C0.764328 5.28864 1.44691 5.07591 2.00825 5.33833L12.5 10.243L22.9918 5.33833C23.5531 5.07591 24.2357 5.28864 24.5164 5.81347C24.7971 6.3383 24.5695 6.97649 24.0082 7.23891L13.0082 12.3812C12.6883 12.5308 12.3118 12.5308 11.9918 12.3812L0.991856 7.23891C0.430517 6.97649 0.20299 6.3383 0.483659 5.81347Z" fill="#F28A4F"/>
<path fill-rule="evenodd" clip-rule="evenodd" d="M12.5 10.3684C13.1276 10.3684 13.6364 10.8441 13.6364 11.4309V23.9254C13.6364 24.5122 13.1276 24.9879 12.5 24.9879C11.8724 24.9879 11.3637 24.5122 11.3637 23.9254V11.4309C11.3637 10.8441 11.8724 10.3684 12.5 10.3684Z" fill="#F28A4F"/>
</svg>
